<mxfile host="app.diagrams.net" modified="2021-12-06T13:52:57.486Z" agent="5.0 (Windows NT 10.0; Win64; x64) AppleWebKit/537.36 (KHTML, like Gecko) Chrome/96.0.4664.45 Safari/537.36" etag="KLUPfWJusxIZSwmvZgxv" version="15.9.1" type="github">
  <diagram id="C5RBs43oDa-KdzZeNtuy" name="sistema de cadastro para eventos">
    <mxGraphModel dx="1094" dy="611" grid="1" gridSize="10" guides="1" tooltips="1" connect="1" arrows="1" fold="1" page="1" pageScale="1" pageWidth="827" pageHeight="1169" math="0" shadow="0">
      <root>
        <mxCell id="WIyWlLk6GJQsqaUBKTNV-0" />
        <mxCell id="WIyWlLk6GJQsqaUBKTNV-1" parent="WIyWlLk6GJQsqaUBKTNV-0" />
        <mxCell id="WIyWlLk6GJQsqaUBKTNV-2" value="" style="rounded=0;html=1;jettySize=auto;orthogonalLoop=1;fontSize=11;endArrow=block;endFill=0;endSize=8;strokeWidth=1;shadow=0;labelBackgroundColor=none;edgeStyle=orthogonalEdgeStyle;" parent="WIyWlLk6GJQsqaUBKTNV-1" source="WIyWlLk6GJQsqaUBKTNV-3" edge="1">
          <mxGeometry relative="1" as="geometry">
            <mxPoint x="220" y="230" as="targetPoint" />
          </mxGeometry>
        </mxCell>
        <mxCell id="WIyWlLk6GJQsqaUBKTNV-3" value="Inicio" style="ellipse;whiteSpace=wrap;html=1;shadow=0;fontFamily=Helvetica;fontSize=12;fontColor=rgb(0, 0, 0);align=center;strokeColor=rgb(0, 0, 0);strokeWidth=1;fillColor=rgb(255, 255, 255);" parent="WIyWlLk6GJQsqaUBKTNV-1" vertex="1">
          <mxGeometry x="160" y="80" width="120" height="40" as="geometry" />
        </mxCell>
        <mxCell id="RGxDsQOP5B6y2GzN9bs0-18" style="edgeStyle=orthogonalEdgeStyle;rounded=0;orthogonalLoop=1;jettySize=auto;html=1;entryX=0.617;entryY=0.99;entryDx=0;entryDy=0;entryPerimeter=0;labelBorderColor=none;fontFamily=Helvetica;fontSize=12;" edge="1" parent="WIyWlLk6GJQsqaUBKTNV-1" source="WIyWlLk6GJQsqaUBKTNV-6" target="RGxDsQOP5B6y2GzN9bs0-8">
          <mxGeometry relative="1" as="geometry" />
        </mxCell>
        <mxCell id="RGxDsQOP5B6y2GzN9bs0-57" value="Falso" style="edgeLabel;html=1;align=center;verticalAlign=middle;resizable=0;points=[];fontSize=11;fontFamily=Helvetica;" vertex="1" connectable="0" parent="RGxDsQOP5B6y2GzN9bs0-18">
          <mxGeometry x="-0.4935" y="3" relative="1" as="geometry">
            <mxPoint as="offset" />
          </mxGeometry>
        </mxCell>
        <mxCell id="RGxDsQOP5B6y2GzN9bs0-22" style="edgeStyle=orthogonalEdgeStyle;rounded=0;orthogonalLoop=1;jettySize=auto;html=1;exitX=0.5;exitY=1;exitDx=0;exitDy=0;labelBorderColor=none;fontFamily=Helvetica;fontSize=12;" edge="1" parent="WIyWlLk6GJQsqaUBKTNV-1" source="WIyWlLk6GJQsqaUBKTNV-6" target="RGxDsQOP5B6y2GzN9bs0-21">
          <mxGeometry relative="1" as="geometry" />
        </mxCell>
        <mxCell id="RGxDsQOP5B6y2GzN9bs0-58" value="Verdadeiro" style="edgeLabel;html=1;align=center;verticalAlign=middle;resizable=0;points=[];fontSize=11;fontFamily=Helvetica;" vertex="1" connectable="0" parent="RGxDsQOP5B6y2GzN9bs0-22">
          <mxGeometry x="-0.2317" y="-1" relative="1" as="geometry">
            <mxPoint as="offset" />
          </mxGeometry>
        </mxCell>
        <mxCell id="WIyWlLk6GJQsqaUBKTNV-6" value="&lt;span style=&quot;font-size: 11px&quot;&gt;É posterior&amp;nbsp;&lt;br&gt;a data atual?&lt;br&gt;&lt;/span&gt;" style="rhombus;whiteSpace=wrap;html=1;shadow=0;fontFamily=Helvetica;fontSize=12;align=center;strokeWidth=1;spacing=6;spacingTop=-4;" parent="WIyWlLk6GJQsqaUBKTNV-1" vertex="1">
          <mxGeometry x="160" y="480" width="120" height="80" as="geometry" />
        </mxCell>
        <mxCell id="RGxDsQOP5B6y2GzN9bs0-0" value="Qual a data do &lt;br&gt;Evento?" style="shape=display;whiteSpace=wrap;html=1;fontFamily=Helvetica;fontSize=11;fontColor=rgb(0, 0, 0);align=center;strokeColor=rgb(0, 0, 0);fillColor=rgb(255, 255, 255);" vertex="1" parent="WIyWlLk6GJQsqaUBKTNV-1">
          <mxGeometry x="160" y="230" width="120" height="50" as="geometry" />
        </mxCell>
        <mxCell id="RGxDsQOP5B6y2GzN9bs0-2" value="" style="endArrow=classic;html=1;rounded=0;fontSize=11;entryX=0.5;entryY=0;entryDx=0;entryDy=0;" edge="1" parent="WIyWlLk6GJQsqaUBKTNV-1" source="RGxDsQOP5B6y2GzN9bs0-0" target="RGxDsQOP5B6y2GzN9bs0-15">
          <mxGeometry width="50" height="50" relative="1" as="geometry">
            <mxPoint x="220" y="340" as="sourcePoint" />
            <mxPoint x="220" y="350" as="targetPoint" />
          </mxGeometry>
        </mxCell>
        <mxCell id="RGxDsQOP5B6y2GzN9bs0-11" style="edgeStyle=orthogonalEdgeStyle;rounded=0;orthogonalLoop=1;jettySize=auto;html=1;labelBorderColor=none;fontFamily=Helvetica;fontSize=12;entryX=1;entryY=0.5;entryDx=0;entryDy=0;" edge="1" parent="WIyWlLk6GJQsqaUBKTNV-1" source="RGxDsQOP5B6y2GzN9bs0-8" target="RGxDsQOP5B6y2GzN9bs0-0">
          <mxGeometry relative="1" as="geometry">
            <mxPoint x="410" y="240" as="targetPoint" />
            <Array as="points">
              <mxPoint x="410" y="250" />
              <mxPoint x="280" y="250" />
            </Array>
          </mxGeometry>
        </mxCell>
        <mxCell id="RGxDsQOP5B6y2GzN9bs0-8" value="&lt;span style=&quot;line-height: 107% ; color: rgb(93 , 103 , 109)&quot;&gt;&lt;font style=&quot;font-size: 12px&quot;&gt;o cadastro &lt;br&gt;não será permitido por data inválida&lt;/font&gt;&lt;/span&gt;" style="shape=display;whiteSpace=wrap;html=1;fontSize=12;" vertex="1" parent="WIyWlLk6GJQsqaUBKTNV-1">
          <mxGeometry x="330" y="370" width="130" height="50" as="geometry" />
        </mxCell>
        <mxCell id="RGxDsQOP5B6y2GzN9bs0-17" style="edgeStyle=orthogonalEdgeStyle;rounded=0;orthogonalLoop=1;jettySize=auto;html=1;labelBorderColor=none;fontFamily=Helvetica;fontSize=12;" edge="1" parent="WIyWlLk6GJQsqaUBKTNV-1" source="RGxDsQOP5B6y2GzN9bs0-15" target="WIyWlLk6GJQsqaUBKTNV-6">
          <mxGeometry relative="1" as="geometry" />
        </mxCell>
        <mxCell id="RGxDsQOP5B6y2GzN9bs0-15" value="&lt;br&gt;Data Informada" style="shape=manualInput;whiteSpace=wrap;html=1;fontFamily=Helvetica;fontSize=12;" vertex="1" parent="WIyWlLk6GJQsqaUBKTNV-1">
          <mxGeometry x="160" y="360" width="120" height="70" as="geometry" />
        </mxCell>
        <mxCell id="RGxDsQOP5B6y2GzN9bs0-24" style="edgeStyle=orthogonalEdgeStyle;rounded=0;orthogonalLoop=1;jettySize=auto;html=1;entryX=0.5;entryY=0;entryDx=0;entryDy=0;labelBorderColor=none;fontFamily=Helvetica;fontSize=12;" edge="1" parent="WIyWlLk6GJQsqaUBKTNV-1" source="RGxDsQOP5B6y2GzN9bs0-21" target="RGxDsQOP5B6y2GzN9bs0-23">
          <mxGeometry relative="1" as="geometry" />
        </mxCell>
        <mxCell id="RGxDsQOP5B6y2GzN9bs0-21" value="Qual o ano atual?" style="shape=display;whiteSpace=wrap;html=1;fontFamily=Helvetica;fontSize=11;fontColor=rgb(0, 0, 0);align=center;strokeColor=rgb(0, 0, 0);fillColor=rgb(255, 255, 255);" vertex="1" parent="WIyWlLk6GJQsqaUBKTNV-1">
          <mxGeometry x="160" y="650" width="120" height="50" as="geometry" />
        </mxCell>
        <mxCell id="RGxDsQOP5B6y2GzN9bs0-26" style="edgeStyle=orthogonalEdgeStyle;rounded=0;orthogonalLoop=1;jettySize=auto;html=1;labelBorderColor=none;fontFamily=Helvetica;fontSize=12;" edge="1" parent="WIyWlLk6GJQsqaUBKTNV-1" source="RGxDsQOP5B6y2GzN9bs0-23" target="RGxDsQOP5B6y2GzN9bs0-25">
          <mxGeometry relative="1" as="geometry" />
        </mxCell>
        <mxCell id="RGxDsQOP5B6y2GzN9bs0-23" value="ano Atual" style="shape=manualInput;whiteSpace=wrap;html=1;fontFamily=Helvetica;fontSize=12;" vertex="1" parent="WIyWlLk6GJQsqaUBKTNV-1">
          <mxGeometry x="160" y="745" width="120" height="60" as="geometry" />
        </mxCell>
        <mxCell id="RGxDsQOP5B6y2GzN9bs0-29" style="edgeStyle=orthogonalEdgeStyle;rounded=0;orthogonalLoop=1;jettySize=auto;html=1;entryX=0.5;entryY=0;entryDx=0;entryDy=0;labelBorderColor=none;fontFamily=Helvetica;fontSize=12;" edge="1" parent="WIyWlLk6GJQsqaUBKTNV-1" source="RGxDsQOP5B6y2GzN9bs0-25" target="RGxDsQOP5B6y2GzN9bs0-27">
          <mxGeometry relative="1" as="geometry" />
        </mxCell>
        <mxCell id="RGxDsQOP5B6y2GzN9bs0-25" value="Qual o ano de nascimento do participate?" style="shape=display;whiteSpace=wrap;html=1;fontFamily=Helvetica;fontSize=11;fontColor=rgb(0, 0, 0);align=center;strokeColor=rgb(0, 0, 0);fillColor=rgb(255, 255, 255);" vertex="1" parent="WIyWlLk6GJQsqaUBKTNV-1">
          <mxGeometry x="160" y="845" width="120" height="50" as="geometry" />
        </mxCell>
        <mxCell id="RGxDsQOP5B6y2GzN9bs0-34" style="edgeStyle=orthogonalEdgeStyle;rounded=0;orthogonalLoop=1;jettySize=auto;html=1;labelBorderColor=none;fontFamily=Helvetica;fontSize=12;" edge="1" parent="WIyWlLk6GJQsqaUBKTNV-1" source="RGxDsQOP5B6y2GzN9bs0-27" target="RGxDsQOP5B6y2GzN9bs0-33">
          <mxGeometry relative="1" as="geometry" />
        </mxCell>
        <mxCell id="RGxDsQOP5B6y2GzN9bs0-27" value="&lt;br&gt;&lt;br&gt;Ano de nascimento&lt;br&gt;do participante" style="shape=manualInput;whiteSpace=wrap;html=1;fontFamily=Helvetica;fontSize=12;" vertex="1" parent="WIyWlLk6GJQsqaUBKTNV-1">
          <mxGeometry x="160" y="935" width="120" height="70" as="geometry" />
        </mxCell>
        <mxCell id="RGxDsQOP5B6y2GzN9bs0-46" value="" style="edgeStyle=orthogonalEdgeStyle;rounded=0;orthogonalLoop=1;jettySize=auto;html=1;labelBorderColor=none;fontFamily=Helvetica;fontSize=12;entryX=0.031;entryY=0.505;entryDx=0;entryDy=0;entryPerimeter=0;" edge="1" parent="WIyWlLk6GJQsqaUBKTNV-1" source="RGxDsQOP5B6y2GzN9bs0-30" target="RGxDsQOP5B6y2GzN9bs0-65">
          <mxGeometry relative="1" as="geometry">
            <mxPoint x="570" y="1075" as="targetPoint" />
            <Array as="points">
              <mxPoint x="520" y="1075" />
            </Array>
          </mxGeometry>
        </mxCell>
        <mxCell id="RGxDsQOP5B6y2GzN9bs0-56" value="Verdadeiro" style="edgeLabel;html=1;align=center;verticalAlign=middle;resizable=0;points=[];fontSize=11;fontFamily=Helvetica;" vertex="1" connectable="0" parent="RGxDsQOP5B6y2GzN9bs0-46">
          <mxGeometry x="-0.1893" relative="1" as="geometry">
            <mxPoint x="9" as="offset" />
          </mxGeometry>
        </mxCell>
        <mxCell id="RGxDsQOP5B6y2GzN9bs0-49" value="" style="edgeStyle=orthogonalEdgeStyle;rounded=0;orthogonalLoop=1;jettySize=auto;html=1;labelBorderColor=none;fontFamily=Helvetica;fontSize=12;" edge="1" parent="WIyWlLk6GJQsqaUBKTNV-1" source="RGxDsQOP5B6y2GzN9bs0-30" target="RGxDsQOP5B6y2GzN9bs0-48">
          <mxGeometry relative="1" as="geometry">
            <Array as="points">
              <mxPoint x="390" y="940" />
              <mxPoint x="390" y="940" />
            </Array>
          </mxGeometry>
        </mxCell>
        <mxCell id="RGxDsQOP5B6y2GzN9bs0-55" value="Falso" style="edgeLabel;html=1;align=center;verticalAlign=middle;resizable=0;points=[];fontSize=11;fontFamily=Helvetica;" vertex="1" connectable="0" parent="RGxDsQOP5B6y2GzN9bs0-49">
          <mxGeometry x="0.1562" y="1" relative="1" as="geometry">
            <mxPoint as="offset" />
          </mxGeometry>
        </mxCell>
        <mxCell id="RGxDsQOP5B6y2GzN9bs0-30" value="&lt;br&gt;Idade maior que&amp;nbsp;&lt;br&gt;18?" style="rhombus;whiteSpace=wrap;html=1;" vertex="1" parent="WIyWlLk6GJQsqaUBKTNV-1">
          <mxGeometry x="330" y="1040" width="120" height="70" as="geometry" />
        </mxCell>
        <mxCell id="RGxDsQOP5B6y2GzN9bs0-44" value="" style="edgeStyle=orthogonalEdgeStyle;rounded=0;orthogonalLoop=1;jettySize=auto;html=1;labelBorderColor=none;fontFamily=Helvetica;fontSize=12;" edge="1" parent="WIyWlLk6GJQsqaUBKTNV-1" source="RGxDsQOP5B6y2GzN9bs0-33" target="RGxDsQOP5B6y2GzN9bs0-30">
          <mxGeometry relative="1" as="geometry" />
        </mxCell>
        <mxCell id="RGxDsQOP5B6y2GzN9bs0-33" value="Idade = Ano Atual - Ano Nascimento" style="rounded=0;whiteSpace=wrap;html=1;fontFamily=Helvetica;fontSize=12;" vertex="1" parent="WIyWlLk6GJQsqaUBKTNV-1">
          <mxGeometry x="160" y="1045" width="120" height="60" as="geometry" />
        </mxCell>
        <mxCell id="RGxDsQOP5B6y2GzN9bs0-53" value="" style="edgeStyle=orthogonalEdgeStyle;rounded=0;orthogonalLoop=1;jettySize=auto;html=1;labelBorderColor=none;fontFamily=Helvetica;fontSize=11;entryX=0;entryY=0.5;entryDx=0;entryDy=0;" edge="1" parent="WIyWlLk6GJQsqaUBKTNV-1" source="RGxDsQOP5B6y2GzN9bs0-45" target="RGxDsQOP5B6y2GzN9bs0-60">
          <mxGeometry relative="1" as="geometry">
            <mxPoint x="728" y="1075" as="targetPoint" />
            <Array as="points">
              <mxPoint x="840" y="1075" />
            </Array>
          </mxGeometry>
        </mxCell>
        <mxCell id="RGxDsQOP5B6y2GzN9bs0-45" value="Cadastrado com&lt;br&gt;sucesso" style="whiteSpace=wrap;html=1;" vertex="1" parent="WIyWlLk6GJQsqaUBKTNV-1">
          <mxGeometry x="750" y="1045" width="120" height="60" as="geometry" />
        </mxCell>
        <mxCell id="RGxDsQOP5B6y2GzN9bs0-52" style="edgeStyle=orthogonalEdgeStyle;rounded=0;orthogonalLoop=1;jettySize=auto;html=1;labelBorderColor=none;fontFamily=Helvetica;fontSize=11;entryX=1;entryY=0.5;entryDx=0;entryDy=0;entryPerimeter=0;" edge="1" parent="WIyWlLk6GJQsqaUBKTNV-1" source="RGxDsQOP5B6y2GzN9bs0-48" target="RGxDsQOP5B6y2GzN9bs0-21">
          <mxGeometry relative="1" as="geometry">
            <mxPoint x="387.5" y="670" as="targetPoint" />
            <Array as="points">
              <mxPoint x="387" y="840" />
              <mxPoint x="387" y="675" />
            </Array>
          </mxGeometry>
        </mxCell>
        <mxCell id="RGxDsQOP5B6y2GzN9bs0-48" value="&lt;span style=&quot;line-height: 107% ; font-family: &amp;#34;open sans&amp;#34; , sans-serif ; color: rgb(93 , 103 , 109)&quot;&gt;&lt;font style=&quot;font-size: 11px&quot;&gt;cadastro não é &lt;br&gt;permitido pela idade&lt;/font&gt;&lt;/span&gt;" style="shape=display;whiteSpace=wrap;html=1;fontFamily=Helvetica;fontSize=11;fontColor=rgb(0, 0, 0);align=center;strokeColor=rgb(0, 0, 0);fillColor=rgb(255, 255, 255);" vertex="1" parent="WIyWlLk6GJQsqaUBKTNV-1">
          <mxGeometry x="325" y="860" width="125" height="50" as="geometry" />
        </mxCell>
        <mxCell id="RGxDsQOP5B6y2GzN9bs0-74" value="" style="edgeStyle=orthogonalEdgeStyle;rounded=0;orthogonalLoop=1;jettySize=auto;html=1;labelBorderColor=none;fontFamily=Helvetica;fontSize=11;" edge="1" parent="WIyWlLk6GJQsqaUBKTNV-1" source="RGxDsQOP5B6y2GzN9bs0-59" target="RGxDsQOP5B6y2GzN9bs0-73">
          <mxGeometry relative="1" as="geometry" />
        </mxCell>
        <mxCell id="RGxDsQOP5B6y2GzN9bs0-59" value="&lt;div&gt;&lt;span style=&quot;color: rgb(93 , 103 , 109) ; font-family: &amp;#34;open sans&amp;#34; , sans-serif&quot;&gt;Lista de participante&lt;/span&gt;&lt;/div&gt;&lt;font color=&quot;#5d676d&quot; face=&quot;open sans, sans-serif&quot;&gt;&lt;div&gt;&lt;span&gt;e palestrantes por&lt;/span&gt;&lt;/div&gt;&lt;div&gt;&lt;span&gt;eventos&lt;/span&gt;&lt;/div&gt;&lt;/font&gt;" style="shape=display;whiteSpace=wrap;html=1;fontFamily=Helvetica;fontSize=11;fontColor=rgb(0, 0, 0);align=center;strokeColor=rgb(0, 0, 0);fillColor=rgb(255, 255, 255);" vertex="1" parent="WIyWlLk6GJQsqaUBKTNV-1">
          <mxGeometry x="947.5" y="860" width="125" height="50" as="geometry" />
        </mxCell>
        <mxCell id="RGxDsQOP5B6y2GzN9bs0-61" value="" style="edgeStyle=orthogonalEdgeStyle;rounded=0;orthogonalLoop=1;jettySize=auto;html=1;labelBorderColor=none;fontFamily=Helvetica;fontSize=11;" edge="1" parent="WIyWlLk6GJQsqaUBKTNV-1" source="RGxDsQOP5B6y2GzN9bs0-60" target="RGxDsQOP5B6y2GzN9bs0-59">
          <mxGeometry relative="1" as="geometry" />
        </mxCell>
        <mxCell id="RGxDsQOP5B6y2GzN9bs0-60" value="Mostrar&lt;br&gt;lista de eventos e&amp;nbsp;&lt;br&gt;participantes" style="rounded=0;whiteSpace=wrap;html=1;fontFamily=Helvetica;fontSize=12;" vertex="1" parent="WIyWlLk6GJQsqaUBKTNV-1">
          <mxGeometry x="950" y="1045" width="120" height="60" as="geometry" />
        </mxCell>
        <mxCell id="RGxDsQOP5B6y2GzN9bs0-67" value="" style="edgeStyle=orthogonalEdgeStyle;rounded=0;orthogonalLoop=1;jettySize=auto;html=1;labelBorderColor=none;fontFamily=Helvetica;fontSize=11;" edge="1" parent="WIyWlLk6GJQsqaUBKTNV-1" source="RGxDsQOP5B6y2GzN9bs0-65" target="RGxDsQOP5B6y2GzN9bs0-45">
          <mxGeometry relative="1" as="geometry" />
        </mxCell>
        <mxCell id="RGxDsQOP5B6y2GzN9bs0-68" value="Falso" style="edgeLabel;html=1;align=center;verticalAlign=middle;resizable=0;points=[];fontSize=11;fontFamily=Helvetica;" vertex="1" connectable="0" parent="RGxDsQOP5B6y2GzN9bs0-67">
          <mxGeometry x="-0.2179" relative="1" as="geometry">
            <mxPoint as="offset" />
          </mxGeometry>
        </mxCell>
        <mxCell id="RGxDsQOP5B6y2GzN9bs0-70" value="" style="edgeStyle=orthogonalEdgeStyle;rounded=0;orthogonalLoop=1;jettySize=auto;html=1;labelBorderColor=none;fontFamily=Helvetica;fontSize=11;" edge="1" parent="WIyWlLk6GJQsqaUBKTNV-1" source="RGxDsQOP5B6y2GzN9bs0-65" target="RGxDsQOP5B6y2GzN9bs0-69">
          <mxGeometry relative="1" as="geometry" />
        </mxCell>
        <mxCell id="RGxDsQOP5B6y2GzN9bs0-71" value="Verdadeiro" style="edgeLabel;html=1;align=center;verticalAlign=middle;resizable=0;points=[];fontSize=11;fontFamily=Helvetica;" vertex="1" connectable="0" parent="RGxDsQOP5B6y2GzN9bs0-70">
          <mxGeometry x="-0.2179" y="-1" relative="1" as="geometry">
            <mxPoint as="offset" />
          </mxGeometry>
        </mxCell>
        <mxCell id="RGxDsQOP5B6y2GzN9bs0-65" value="Quantidade de Participantes&lt;br&gt;menor que 100?" style="rhombus;whiteSpace=wrap;html=1;fontSize=11;" vertex="1" parent="WIyWlLk6GJQsqaUBKTNV-1">
          <mxGeometry x="540" y="1030" width="140" height="90" as="geometry" />
        </mxCell>
        <mxCell id="RGxDsQOP5B6y2GzN9bs0-72" style="edgeStyle=orthogonalEdgeStyle;rounded=0;orthogonalLoop=1;jettySize=auto;html=1;entryX=1;entryY=0.5;entryDx=0;entryDy=0;entryPerimeter=0;labelBorderColor=none;fontFamily=Helvetica;fontSize=11;" edge="1" parent="WIyWlLk6GJQsqaUBKTNV-1" source="RGxDsQOP5B6y2GzN9bs0-69" target="RGxDsQOP5B6y2GzN9bs0-21">
          <mxGeometry relative="1" as="geometry">
            <Array as="points">
              <mxPoint x="610" y="675" />
            </Array>
          </mxGeometry>
        </mxCell>
        <mxCell id="RGxDsQOP5B6y2GzN9bs0-69" value="&lt;span style=&quot;color: rgb(93 , 103 , 109) ; font-family: &amp;#34;open sans&amp;#34; , sans-serif&quot;&gt;Cadastro negado por exceder o&amp;nbsp;&lt;/span&gt;&lt;font color=&quot;#5d676d&quot; face=&quot;open sans, sans-serif&quot;&gt;limite de participantes&lt;br&gt;&lt;/font&gt;" style="shape=display;whiteSpace=wrap;html=1;fontFamily=Helvetica;fontSize=11;fontColor=rgb(0, 0, 0);align=center;strokeColor=rgb(0, 0, 0);fillColor=rgb(255, 255, 255);" vertex="1" parent="WIyWlLk6GJQsqaUBKTNV-1">
          <mxGeometry x="547.5" y="860" width="125" height="50" as="geometry" />
        </mxCell>
        <mxCell id="RGxDsQOP5B6y2GzN9bs0-73" value="Inicio" style="ellipse;whiteSpace=wrap;html=1;shadow=0;fontFamily=Helvetica;fontSize=12;fontColor=rgb(0, 0, 0);align=center;strokeColor=rgb(0, 0, 0);strokeWidth=1;fillColor=rgb(255, 255, 255);" vertex="1" parent="WIyWlLk6GJQsqaUBKTNV-1">
          <mxGeometry x="950" y="705" width="120" height="40" as="geometry" />
        </mxCell>
      </root>
    </mxGraphModel>
  </diagram>
</mxfile>
